# xmcd
#
# Track frame offsets:
#	150
#	10728
#	21018
#	29567
#	39726
#	48727
#	60767
#	72404
#	86059
#	97294
#	106261
#	116169
#	129091
#	139075
#	149752
#	155608
#	165208
#	173680
#	182421
#	194131
#	203336
#	213999
#	221666
#	231699
#
# Disc length: 3221 seconds
#
# Revision: 1
# Processed by: cddbd v1.5.2PL0 Copyright (c) Steve Scherf et al.
# Submitted via: audiograbber 1.83.01
#
DISCID=5f0c9318
DTITLE=Johnny Cash  - Inspiration - Disc 1 
DYEAR=2010
DGENRE=Country
TTITLE0=Run Softly, Blue River
TTITLE1=Frankie And Johnny
TTITLE2=That's All Over
TTITLE3=The Troubadour
TTITLE4=One More Ride
TTITLE5=That's Enough
TTITLE6=I Still Miss Someone
TTITLE7=Don't Take Your Guns To Town
TTITLE8=I'd Rather Die Young
TTITLE9=Pickin' Time
TTITLE10=Shepherd Of My Heart
TTITLE11=Suppertime
TTITLE12=Goodbye Little Darlin' Goodbye
TTITLE13=I Just Thought You'd Like To Know
TTITLE14=You Tell Me
TTITLE15=Just About Time
TTITLE16=I Forgot To Remember To Forget
TTITLE17=Katy Too
TTITLE18=Thanks A Lot
TTITLE19=Luther Played The Boogie
TTITLE20=You Win Again
TTITLE21=Hey Good Lookin'
TTITLE22=I Could Never Be Ashamed Of You
TTITLE23=Get Rhythm
EXTD=
EXTT0=
EXTT1=
EXTT2=
EXTT3=
EXTT4=
EXTT5=
EXTT6=
EXTT7=
EXTT8=
EXTT9=
EXTT10=
EXTT11=
EXTT12=
EXTT13=
EXTT14=
EXTT15=
EXTT16=
EXTT17=
EXTT18=
EXTT19=
EXTT20=
EXTT21=
EXTT22=
EXTT23=
PLAYORDER=
